<svg id="Layer_1" data-name="Layer 1" xmlns="http://www.w3.org/2000/svg" viewBox="0 0 120.05 64.04"><defs><style>.cls-1{font-size:19.5px;font-family:Industry Inc;}.cls-1,.cls-3,.cls-5{fill:#fff;}.cls-2,.cls-4{fill:none;stroke:#fff;stroke-miterlimit:10;}.cls-2{stroke-width:1.37px;}.cls-4{stroke-width:2.05px;}.cls-5{font-size:15.49px;font-family:Azo Sans;}</style></defs><title>res-series-sm</title><text class="cls-1" transform="translate(7.89 34.4)">R<tspan x="12.68" y="0">e</tspan><tspan x="24.18" y="0">se</tspan><tspan x="48.04" y="0">r</tspan><tspan x="60.44" y="0">v</tspan><tspan x="72.73" y="0">oir</tspan></text><rect class="cls-2" x="5.12" y="4.67" width="109.5" height="54.06"/><path class="cls-3" d="M5,4.91V17.2H114.88V4.91H5Zm8.18,3.14H10.47v6.78H8.62V8.05H5.91V6.44h7.27V8.05Zm7.71,6.78H19.05V11.3H15.42v3.54H13.58V6.44h1.84V9.69h3.63V6.44h1.84v8.4Zm6.3,0H21.88V6.44h5.18V8.05H23.73V9.7H26.6v1.53H23.73v2H27.2v1.61Z"/><rect class="cls-4" x="1.02" y="1.02" width="118" height="61.99"/><path class="cls-3" d="M5.12,37.66V59.12H114.61V37.66H5.12Zm10,18.76L11,50H9.42v6.46H5.83V40.06H11A9.85,9.85,0,0,1,16,41.15,4.2,4.2,0,0,1,18,45a4.55,4.55,0,0,1-3.32,4.52l4.61,6.91H15.16ZM33.4,48.49c0,2.46-.34,4.25-1.26,5.56a6.91,6.91,0,0,1-5.87,2.62A6.86,6.86,0,0,1,20.37,54a9.6,9.6,0,0,1-1.22-5.42V40.06h3.59v8.38A6.78,6.78,0,0,0,23.38,52a3.3,3.3,0,0,0,3,1.42,3.19,3.19,0,0,0,2.89-1.35,6.69,6.69,0,0,0,.7-3.61v-8.4H33.4v8.42Zm16.37,7.93H46.39l-4.9-6.59c-1.06-1.42-2.05-2.8-3.07-4.22l0,0c0,1.56,0,3.14,0,4.72v6.08H35V40.06h3.39l4.9,6.59c1.06,1.42,2.06,2.8,3.07,4.22l0,0c0-1.56,0-3.14,0-4.72V40.06h3.46V56.41Zm64.21,0H60.9V40H114V56.43ZM13.49,43.63a6.13,6.13,0,0,0-2.69-.43H9.42v4.06h1.81a5.14,5.14,0,0,0,2.26-.38,1.7,1.7,0,0,0,.93-1.65A1.61,1.61,0,0,0,13.49,43.63Z"/><text class="cls-5" transform="translate(62.96 53.58)">SERIES</text></svg>