<svg id="Layer_1" data-name="Layer 1" xmlns="http://www.w3.org/2000/svg" viewBox="0 0 120.05 64.04"><defs><style>.cls-1{fill:#fff;}.cls-2,.cls-3{fill:none;stroke:#fff;stroke-miterlimit:10;}.cls-2{stroke-width:1.37px;}.cls-3{stroke-width:2.05px;}</style></defs><title>res-series-sm</title><path class="cls-1" d="M16.76,34.4L14.5,29.2H12.24V34.4H9.43v-14h7.16a2.64,2.64,0,0,1,2.77,2.77v3.3a2.61,2.61,0,0,1-1.91,2.65l2.34,5.32h-3ZM18,33.27l-2.26-5.19h0.51a1.74,1.74,0,0,0,1.91-1.91V23.4a1.74,1.74,0,0,0-1.91-1.91h-5.6V33.27H11V28.08h4.29l2.26,5.19H18Zm-0.23-7.1a1.38,1.38,0,0,1-1.52,1.52H11V21.88h5.21a1.38,1.38,0,0,1,1.52,1.52v2.77Zm-1.87.41a0.6,0.6,0,0,0,.66-0.66V23.68A0.6,0.6,0,0,0,15.89,23H12.24v3.57h3.65Z"/><path class="cls-1" d="M31.29,20.36V23H24.92V25.9h5.17v2.65H24.92v3.2h6.38V34.4H22.11v-14h9.18ZM30.08,33.27V32.88H23.71V27.42h5.17V27H23.71V21.88h6.38V21.49H23.32V33.27h6.77Z"/><path class="cls-1" d="M40.17,23.6a0.6,0.6,0,0,0-.66-0.66H36.7a0.6,0.6,0,0,0-.66.66v1.33a0.64,0.64,0,0,0,.66.66l3.63,0.78c1.52,0.33,2.81,1.25,2.81,2.81v2.54a2.64,2.64,0,0,1-2.77,2.77H36a2.64,2.64,0,0,1-2.77-2.77V29.92H36v1.25a0.6,0.6,0,0,0,.66.66h3a0.6,0.6,0,0,0,.66-0.66V29.68A0.64,0.64,0,0,0,39.66,29L36,28.24c-1.52-.33-2.81-1.25-2.81-2.81V23.05A2.64,2.64,0,0,1,36,20.28h4.13a2.64,2.64,0,0,1,2.77,2.77v1.64H40.17V23.6Zm1.75,5.83a1.53,1.53,0,0,0-1.31-1.7L36,26.54a1.27,1.27,0,0,1-1.19-1.37V23.33a1.38,1.38,0,0,1,1.52-1.52h3.47a1.38,1.38,0,0,1,1.52,1.52v0.23h0.39V23.33a1.74,1.74,0,0,0-1.91-1.91H36.35a1.74,1.74,0,0,0-1.91,1.91v1.85c0,1.09.49,1.46,1.58,1.75l4.6,1.19a1.17,1.17,0,0,1,.92,1.31v2A1.38,1.38,0,0,1,40,33H36.31a1.38,1.38,0,0,1-1.52-1.52V31H34.4v0.39a1.74,1.74,0,0,0,1.91,1.91H40a1.74,1.74,0,0,0,1.91-1.91v-2Z"/><path class="cls-1" d="M55,20.36V23H48.61V25.9h5.17v2.65H48.61v3.2H55V34.4H45.81v-14H55ZM53.78,33.27V32.88H47.4V27.42h5.17V27H47.4V21.88h6.38V21.49H47V33.27h6.77Z"/><path class="cls-1" d="M64.8,34.4L62.54,29.2H60.28V34.4H57.47v-14h7.16a2.64,2.64,0,0,1,2.77,2.77v3.3a2.61,2.61,0,0,1-1.91,2.65l2.34,5.32h-3ZM66,33.27l-2.26-5.19h0.51a1.74,1.74,0,0,0,1.91-1.91V23.4a1.74,1.74,0,0,0-1.91-1.91h-5.6V33.27h0.39V28.08h4.29l2.26,5.19H66Zm-0.23-7.1a1.38,1.38,0,0,1-1.52,1.52H59.07V21.88h5.21a1.38,1.38,0,0,1,1.52,1.52v2.77Zm-1.87.41a0.6,0.6,0,0,0,.66-0.66V23.68A0.6,0.6,0,0,0,63.92,23H60.28v3.57h3.65Z"/><path class="cls-1" d="M76.23,34.4H73l-4.27-14h3.2L74.59,31l2.79-10.67H80.5Zm2.2-12.91L75.2,32.88H74l-3.2-11.39H70.4l3.31,11.78h1.76l3.35-11.78H78.43Z"/><path class="cls-1" d="M89.3,20.28a2.64,2.64,0,0,1,2.77,2.77v8.66a2.64,2.64,0,0,1-2.77,2.77H84.6a2.64,2.64,0,0,1-2.77-2.77V23.05a2.64,2.64,0,0,1,2.77-2.77h4.7Zm1.56,3a1.74,1.74,0,0,0-1.91-1.91h-4A1.74,1.74,0,0,0,83,23.33v8.11a1.74,1.74,0,0,0,1.91,1.91h4a1.74,1.74,0,0,0,1.91-1.91V23.33ZM88.95,21.8a1.38,1.38,0,0,1,1.52,1.52v8.11A1.38,1.38,0,0,1,88.95,33h-4a1.38,1.38,0,0,1-1.52-1.52V23.33a1.38,1.38,0,0,1,1.52-1.52h4Zm0.31,1.79a0.6,0.6,0,0,0-.66-0.66H85.3a0.6,0.6,0,0,0-.66.66v7.57a0.6,0.6,0,0,0,.66.66h3.29a0.6,0.6,0,0,0,.66-0.66V23.6Z"/><path class="cls-1" d="M94.82,20.36h2.81v14H94.82v-14Zm1.6,12.91V21.49H96V33.27h0.39Z"/><path class="cls-1" d="M108,34.4l-2.26-5.21h-2.26V34.4h-2.81v-14h7.16a2.64,2.64,0,0,1,2.77,2.77v3.3a2.61,2.61,0,0,1-1.91,2.65l2.34,5.32h-3Zm1.23-1.13L107,28.08h0.51a1.74,1.74,0,0,0,1.91-1.91V23.4a1.74,1.74,0,0,0-1.91-1.91h-5.6V33.27h0.39V28.08h4.29l2.26,5.19h0.41ZM109,26.17a1.38,1.38,0,0,1-1.52,1.52H102.3V21.88h5.21A1.38,1.38,0,0,1,109,23.4v2.77Zm-1.87.41a0.6,0.6,0,0,0,.66-0.66V23.68a0.6,0.6,0,0,0-.66-0.66h-3.65v3.57h3.65Z"/><rect class="cls-2" x="5.12" y="4.67" width="109.5" height="54.06"/><path class="cls-1" d="M5,4.91V17.2H114.88V4.91H5Zm8.18,3.14H10.47v6.78H8.62V8.05H5.91V6.44h7.27V8.05Zm7.71,6.78H19.05V11.3H15.42v3.54H13.58V6.44h1.84V9.69h3.63V6.44h1.84v8.4Zm6.3,0H21.88V6.44h5.18V8.05H23.73V9.7H26.6v1.53H23.73v2H27.2v1.61Z"/><rect class="cls-3" x="1.02" y="1.02" width="118" height="61.99"/><path class="cls-1" d="M5.12,37.66V59.12H114.61V37.66H5.12Zm10,18.76L11,50H9.42v6.46H5.83V40.06H11A9.85,9.85,0,0,1,16,41.15,4.2,4.2,0,0,1,18,45a4.55,4.55,0,0,1-3.32,4.52l4.61,6.91H15.16ZM33.4,48.49c0,2.46-.34,4.25-1.26,5.56a6.91,6.91,0,0,1-5.87,2.62A6.86,6.86,0,0,1,20.37,54a9.6,9.6,0,0,1-1.22-5.42V40.06h3.59v8.38A6.78,6.78,0,0,0,23.38,52a3.3,3.3,0,0,0,3,1.42,3.19,3.19,0,0,0,2.89-1.35,6.69,6.69,0,0,0,.7-3.61v-8.4H33.4v8.42Zm16.37,7.93H46.39l-4.9-6.59c-1.06-1.42-2.05-2.8-3.07-4.22l0,0c0,1.56,0,3.14,0,4.72v6.08H35V40.06h3.39l4.9,6.59c1.06,1.42,2.06,2.8,3.07,4.22l0,0c0-1.56,0-3.14,0-4.72V40.06h3.46V56.41Zm64.21,0H60.9V40H114V56.43ZM13.49,43.63a6.13,6.13,0,0,0-2.69-.43H9.42v4.06h1.81a5.14,5.14,0,0,0,2.26-.38,1.7,1.7,0,0,0,.93-1.65A1.61,1.61,0,0,0,13.49,43.63Z"/><path class="cls-1" d="M63.91,51.26A5.87,5.87,0,0,0,67.3,52.4c1.33,0,2.28-.6,2.28-1.83,0-1.44-1.32-1.69-2.79-2.11s-3.11-1.1-3.11-3.14,1.44-3.13,3.62-3.13a6.33,6.33,0,0,1,3.22.84v1.55a6,6,0,0,0-3.25-1c-1.25,0-2.14.54-2.14,1.69,0,1.39,1.3,1.63,2.66,2C69.42,47.71,71,48.36,71,50.5s-1.5,3.25-3.75,3.25a6.91,6.91,0,0,1-3.38-.88V51.26Z"/><path class="cls-1" d="M73,42.37h6.47V43.7h-5v3.41h4.38v1.29H74.45v3.86H79.6v1.33H73V42.37Z"/><path class="cls-1" d="M81.59,42.37h3a6.31,6.31,0,0,1,3.13.56,2.85,2.85,0,0,1,1.55,2.62,3,3,0,0,1-1.44,2.63,3.47,3.47,0,0,1-1.29.46l3.59,4.94H88.39L85,48.78H83.06v4.8H81.59V42.37ZM85,47.57a3.53,3.53,0,0,0,2.2-.51,1.65,1.65,0,0,0,.67-1.39,1.73,1.73,0,0,0-.91-1.6,5,5,0,0,0-2.4-.37H83.06v3.87H85Z"/><path class="cls-1" d="M91.67,42.37h1.47V53.58H91.67V42.37Z"/><path class="cls-1" d="M95.73,42.37h6.47V43.7h-5v3.41h4.38v1.29H97.2v3.86h5.14v1.33H95.73V42.37Z"/><path class="cls-1" d="M104,51.26a5.87,5.87,0,0,0,3.39,1.15c1.33,0,2.28-.6,2.28-1.83,0-1.44-1.32-1.69-2.79-2.11s-3.11-1.1-3.11-3.14,1.44-3.13,3.62-3.13a6.33,6.33,0,0,1,3.22.84v1.55a6,6,0,0,0-3.25-1c-1.25,0-2.14.54-2.14,1.69,0,1.39,1.3,1.63,2.66,2,1.63,0.46,3.24,1.11,3.24,3.25s-1.5,3.25-3.75,3.25a6.91,6.91,0,0,1-3.38-.88V51.26Z"/></svg>